<mxfile host="65bd71144e">
    <diagram id="RNaWkuKRxEJbEr7aYnWs" name="Page-1">
        <mxGraphModel dx="1089" dy="766" grid="1" gridSize="10" guides="1" tooltips="1" connect="1" arrows="1" fold="1" page="1" pageScale="1" pageWidth="850" pageHeight="1100" math="0" shadow="0">
            <root>
                <mxCell id="0"/>
                <mxCell id="1" parent="0"/>
                <mxCell id="ga03uyhn2KRXtW5bcROZ-85" value="Customer" style="shape=umlActor;verticalLabelPosition=bottom;verticalAlign=top;html=1;outlineConnect=0;" vertex="1" parent="1">
                    <mxGeometry x="90" y="90" width="30" height="60" as="geometry"/>
                </mxCell>
                <mxCell id="ga03uyhn2KRXtW5bcROZ-86" value="&lt;font style=&quot;font-size: 9px;&quot;&gt;&amp;lt;&amp;lt;Boundary&amp;gt;&amp;gt;&lt;br&gt;Create order&lt;br&gt;&lt;/font&gt;" style="rounded=0;whiteSpace=wrap;html=1;" vertex="1" parent="1">
                    <mxGeometry x="179.99999999999997" y="115" width="110" height="35" as="geometry"/>
                </mxCell>
                <mxCell id="ga03uyhn2KRXtW5bcROZ-87" value="&lt;font style=&quot;font-size: 9px;&quot;&gt;&amp;lt;&amp;lt;Control&amp;gt;&amp;gt;&lt;br&gt;CreateControl&lt;br&gt;&lt;/font&gt;" style="rounded=0;whiteSpace=wrap;html=1;" vertex="1" parent="1">
                    <mxGeometry x="300" y="115" width="110" height="35" as="geometry"/>
                </mxCell>
                <mxCell id="ga03uyhn2KRXtW5bcROZ-88" value="&lt;font style=&quot;font-size: 9px;&quot;&gt;&amp;lt;&amp;lt;entity&amp;gt;&amp;gt;&lt;br&gt;Stock&lt;br&gt;&lt;/font&gt;" style="rounded=0;whiteSpace=wrap;html=1;" vertex="1" parent="1">
                    <mxGeometry x="420" y="115" width="110" height="35" as="geometry"/>
                </mxCell>
                <mxCell id="ga03uyhn2KRXtW5bcROZ-89" value="" style="endArrow=none;dashed=1;html=1;startArrow=none;" edge="1" parent="1" source="ga03uyhn2KRXtW5bcROZ-94" target="ga03uyhn2KRXtW5bcROZ-85">
                    <mxGeometry width="50" height="50" relative="1" as="geometry">
                        <mxPoint x="105" y="660" as="sourcePoint"/>
                        <mxPoint x="135" y="200" as="targetPoint"/>
                    </mxGeometry>
                </mxCell>
                <mxCell id="ga03uyhn2KRXtW5bcROZ-90" value="" style="endArrow=none;dashed=1;html=1;startArrow=none;" edge="1" parent="1" source="ga03uyhn2KRXtW5bcROZ-117">
                    <mxGeometry width="50" height="50" relative="1" as="geometry">
                        <mxPoint x="235" y="620" as="sourcePoint"/>
                        <mxPoint x="234.5" y="160" as="targetPoint"/>
                    </mxGeometry>
                </mxCell>
                <mxCell id="ga03uyhn2KRXtW5bcROZ-91" value="" style="endArrow=none;dashed=1;html=1;startArrow=none;" edge="1" parent="1" source="ga03uyhn2KRXtW5bcROZ-130">
                    <mxGeometry width="50" height="50" relative="1" as="geometry">
                        <mxPoint x="355" y="420" as="sourcePoint"/>
                        <mxPoint x="354.5" y="160" as="targetPoint"/>
                    </mxGeometry>
                </mxCell>
                <mxCell id="ga03uyhn2KRXtW5bcROZ-92" value="" style="endArrow=none;dashed=1;html=1;startArrow=none;" edge="1" parent="1">
                    <mxGeometry width="50" height="50" relative="1" as="geometry">
                        <mxPoint x="474.76666666666665" y="240" as="sourcePoint"/>
                        <mxPoint x="474.5" y="160" as="targetPoint"/>
                    </mxGeometry>
                </mxCell>
                <mxCell id="ga03uyhn2KRXtW5bcROZ-93" value="" style="endArrow=none;dashed=1;html=1;" edge="1" parent="1" target="ga03uyhn2KRXtW5bcROZ-94">
                    <mxGeometry width="50" height="50" relative="1" as="geometry">
                        <mxPoint x="105" y="1040" as="sourcePoint"/>
                        <mxPoint x="105" y="150" as="targetPoint"/>
                    </mxGeometry>
                </mxCell>
                <mxCell id="ga03uyhn2KRXtW5bcROZ-94" value="" style="rounded=0;whiteSpace=wrap;html=1;direction=south;" vertex="1" parent="1">
                    <mxGeometry x="100" y="180" width="10" height="840" as="geometry"/>
                </mxCell>
                <mxCell id="ga03uyhn2KRXtW5bcROZ-95" value="" style="endArrow=classic;html=1;fontSize=9;exitX=1.081;exitY=0.094;exitDx=0;exitDy=0;exitPerimeter=0;" edge="1" parent="1">
                    <mxGeometry width="50" height="50" relative="1" as="geometry">
                        <mxPoint x="110" y="210.08000000000004" as="sourcePoint"/>
                        <mxPoint x="230" y="210" as="targetPoint"/>
                    </mxGeometry>
                </mxCell>
                <mxCell id="ga03uyhn2KRXtW5bcROZ-96" value="CreateOrder()" style="text;html=1;align=center;verticalAlign=middle;resizable=0;points=[];autosize=1;strokeColor=none;fillColor=none;fontSize=9;" vertex="1" parent="1">
                    <mxGeometry x="125" y="190" width="80" height="20" as="geometry"/>
                </mxCell>
                <mxCell id="ga03uyhn2KRXtW5bcROZ-97" value="" style="endArrow=classic;html=1;fontSize=9;exitX=1.081;exitY=0.094;exitDx=0;exitDy=0;exitPerimeter=0;" edge="1" parent="1">
                    <mxGeometry width="50" height="50" relative="1" as="geometry">
                        <mxPoint x="230" y="230.08000000000004" as="sourcePoint"/>
                        <mxPoint x="350" y="230" as="targetPoint"/>
                    </mxGeometry>
                </mxCell>
                <mxCell id="ga03uyhn2KRXtW5bcROZ-98" value="" style="endArrow=none;dashed=1;html=1;" edge="1" parent="1">
                    <mxGeometry width="50" height="50" relative="1" as="geometry">
                        <mxPoint x="235" y="1040" as="sourcePoint"/>
                        <mxPoint x="234.5864661654134" y="620" as="targetPoint"/>
                    </mxGeometry>
                </mxCell>
                <mxCell id="ga03uyhn2KRXtW5bcROZ-99" value="" style="endArrow=none;dashed=1;html=1;startArrow=none;" edge="1" parent="1" source="ga03uyhn2KRXtW5bcROZ-124" target="ga03uyhn2KRXtW5bcROZ-104">
                    <mxGeometry width="50" height="50" relative="1" as="geometry">
                        <mxPoint x="475" y="660" as="sourcePoint"/>
                        <mxPoint x="474.9016853932585" y="380" as="targetPoint"/>
                    </mxGeometry>
                </mxCell>
                <mxCell id="ga03uyhn2KRXtW5bcROZ-100" value="CreateOrder()" style="text;html=1;align=center;verticalAlign=middle;resizable=0;points=[];autosize=1;strokeColor=none;fillColor=none;fontSize=9;" vertex="1" parent="1">
                    <mxGeometry x="250" y="210" width="80" height="20" as="geometry"/>
                </mxCell>
                <mxCell id="ga03uyhn2KRXtW5bcROZ-101" value="" style="endArrow=classic;html=1;fontSize=9;exitX=1.081;exitY=0.094;exitDx=0;exitDy=0;exitPerimeter=0;" edge="1" parent="1">
                    <mxGeometry width="50" height="50" relative="1" as="geometry">
                        <mxPoint x="350" y="250.07999999999993" as="sourcePoint"/>
                        <mxPoint x="470" y="250" as="targetPoint"/>
                    </mxGeometry>
                </mxCell>
                <mxCell id="ga03uyhn2KRXtW5bcROZ-102" value="" style="endArrow=none;dashed=1;html=1;" edge="1" parent="1">
                    <mxGeometry width="50" height="50" relative="1" as="geometry">
                        <mxPoint x="355" y="1040" as="sourcePoint"/>
                        <mxPoint x="354.8360655737704" y="420" as="targetPoint"/>
                    </mxGeometry>
                </mxCell>
                <mxCell id="ga03uyhn2KRXtW5bcROZ-103" value="" style="endArrow=classic;html=1;fontSize=9;exitX=1.081;exitY=0.094;exitDx=0;exitDy=0;exitPerimeter=0;" edge="1" parent="1">
                    <mxGeometry width="50" height="50" relative="1" as="geometry">
                        <mxPoint x="480" y="290" as="sourcePoint"/>
                        <mxPoint x="360" y="290.4200000000001" as="targetPoint"/>
                    </mxGeometry>
                </mxCell>
                <mxCell id="ga03uyhn2KRXtW5bcROZ-104" value="" style="rounded=0;whiteSpace=wrap;html=1;direction=south;" vertex="1" parent="1">
                    <mxGeometry x="470" y="240" width="10" height="100" as="geometry"/>
                </mxCell>
                <mxCell id="ga03uyhn2KRXtW5bcROZ-105" value="CheckStock()" style="text;html=1;align=center;verticalAlign=middle;resizable=0;points=[];autosize=1;strokeColor=none;fillColor=none;fontSize=9;" vertex="1" parent="1">
                    <mxGeometry x="370" y="230" width="80" height="20" as="geometry"/>
                </mxCell>
                <mxCell id="ga03uyhn2KRXtW5bcROZ-106" value="SentData()" style="text;html=1;align=center;verticalAlign=middle;resizable=0;points=[];autosize=1;strokeColor=none;fillColor=none;fontSize=9;" vertex="1" parent="1">
                    <mxGeometry x="375" y="270" width="70" height="20" as="geometry"/>
                </mxCell>
                <mxCell id="ga03uyhn2KRXtW5bcROZ-107" value="" style="endArrow=classic;html=1;fontSize=9;exitX=1.081;exitY=0.094;exitDx=0;exitDy=0;exitPerimeter=0;" edge="1" parent="1">
                    <mxGeometry width="50" height="50" relative="1" as="geometry">
                        <mxPoint x="360" y="310" as="sourcePoint"/>
                        <mxPoint x="240" y="310.4200000000001" as="targetPoint"/>
                    </mxGeometry>
                </mxCell>
                <mxCell id="ga03uyhn2KRXtW5bcROZ-108" value="" style="endArrow=classic;html=1;fontSize=9;exitX=1.081;exitY=0.094;exitDx=0;exitDy=0;exitPerimeter=0;" edge="1" parent="1">
                    <mxGeometry width="50" height="50" relative="1" as="geometry">
                        <mxPoint x="230" y="330" as="sourcePoint"/>
                        <mxPoint x="110" y="330.4200000000001" as="targetPoint"/>
                    </mxGeometry>
                </mxCell>
                <mxCell id="ga03uyhn2KRXtW5bcROZ-109" value="" style="endArrow=classic;html=1;fontSize=9;exitX=1.081;exitY=0.094;exitDx=0;exitDy=0;exitPerimeter=0;" edge="1" parent="1">
                    <mxGeometry width="50" height="50" relative="1" as="geometry">
                        <mxPoint x="110" y="370.0799999999999" as="sourcePoint"/>
                        <mxPoint x="230" y="370" as="targetPoint"/>
                    </mxGeometry>
                </mxCell>
                <mxCell id="ga03uyhn2KRXtW5bcROZ-110" value="" style="endArrow=classic;html=1;fontSize=9;exitX=1.081;exitY=0.094;exitDx=0;exitDy=0;exitPerimeter=0;" edge="1" parent="1">
                    <mxGeometry width="50" height="50" relative="1" as="geometry">
                        <mxPoint x="230" y="390.0799999999999" as="sourcePoint"/>
                        <mxPoint x="350" y="390" as="targetPoint"/>
                    </mxGeometry>
                </mxCell>
                <mxCell id="ga03uyhn2KRXtW5bcROZ-111" value="" style="endArrow=classic;html=1;fontSize=9;exitX=1.081;exitY=0.094;exitDx=0;exitDy=0;exitPerimeter=0;" edge="1" parent="1">
                    <mxGeometry width="50" height="50" relative="1" as="geometry">
                        <mxPoint x="110" y="490.0799999999999" as="sourcePoint"/>
                        <mxPoint x="230" y="490" as="targetPoint"/>
                    </mxGeometry>
                </mxCell>
                <mxCell id="ga03uyhn2KRXtW5bcROZ-112" value="" style="endArrow=classic;html=1;fontSize=9;exitX=1.081;exitY=0.094;exitDx=0;exitDy=0;exitPerimeter=0;" edge="1" parent="1">
                    <mxGeometry width="50" height="50" relative="1" as="geometry">
                        <mxPoint x="360" y="430" as="sourcePoint"/>
                        <mxPoint x="240" y="430.4200000000001" as="targetPoint"/>
                    </mxGeometry>
                </mxCell>
                <mxCell id="ga03uyhn2KRXtW5bcROZ-113" value="" style="endArrow=classic;html=1;fontSize=9;exitX=1.081;exitY=0.094;exitDx=0;exitDy=0;exitPerimeter=0;" edge="1" parent="1">
                    <mxGeometry width="50" height="50" relative="1" as="geometry">
                        <mxPoint x="230" y="510.0799999999999" as="sourcePoint"/>
                        <mxPoint x="350" y="510" as="targetPoint"/>
                    </mxGeometry>
                </mxCell>
                <mxCell id="ga03uyhn2KRXtW5bcROZ-114" value="SendChoice()" style="text;html=1;align=center;verticalAlign=middle;resizable=0;points=[];autosize=1;strokeColor=none;fillColor=none;fontSize=9;" vertex="1" parent="1">
                    <mxGeometry x="250" y="290" width="80" height="20" as="geometry"/>
                </mxCell>
                <mxCell id="ga03uyhn2KRXtW5bcROZ-115" value="" style="endArrow=none;dashed=1;html=1;startArrow=none;" edge="1" parent="1">
                    <mxGeometry width="50" height="50" relative="1" as="geometry">
                        <mxPoint x="355" y="420" as="sourcePoint"/>
                        <mxPoint x="355" y="620" as="targetPoint"/>
                    </mxGeometry>
                </mxCell>
                <mxCell id="ga03uyhn2KRXtW5bcROZ-116" value="" style="endArrow=none;dashed=1;html=1;startArrow=none;" edge="1" parent="1" target="ga03uyhn2KRXtW5bcROZ-117">
                    <mxGeometry width="50" height="50" relative="1" as="geometry">
                        <mxPoint x="235" y="620" as="sourcePoint"/>
                        <mxPoint x="234.5" y="160" as="targetPoint"/>
                    </mxGeometry>
                </mxCell>
                <mxCell id="ga03uyhn2KRXtW5bcROZ-117" value="" style="rounded=0;whiteSpace=wrap;html=1;direction=south;" vertex="1" parent="1">
                    <mxGeometry x="230" y="180" width="10" height="830" as="geometry"/>
                </mxCell>
                <mxCell id="ga03uyhn2KRXtW5bcROZ-118" value="" style="endArrow=classic;html=1;fontSize=9;exitX=1.081;exitY=0.094;exitDx=0;exitDy=0;exitPerimeter=0;" edge="1" parent="1">
                    <mxGeometry width="50" height="50" relative="1" as="geometry">
                        <mxPoint x="230" y="450" as="sourcePoint"/>
                        <mxPoint x="110" y="450.4200000000001" as="targetPoint"/>
                    </mxGeometry>
                </mxCell>
                <mxCell id="ga03uyhn2KRXtW5bcROZ-119" value="ChooseChoice()" style="text;html=1;align=center;verticalAlign=middle;resizable=0;points=[];autosize=1;strokeColor=none;fillColor=none;fontSize=9;" vertex="1" parent="1">
                    <mxGeometry x="125" y="350" width="90" height="20" as="geometry"/>
                </mxCell>
                <mxCell id="ga03uyhn2KRXtW5bcROZ-120" value="" style="endArrow=none;dashed=1;html=1;" edge="1" parent="1">
                    <mxGeometry width="50" height="50" relative="1" as="geometry">
                        <mxPoint x="475" y="1040" as="sourcePoint"/>
                        <mxPoint x="475" y="660" as="targetPoint"/>
                    </mxGeometry>
                </mxCell>
                <mxCell id="ga03uyhn2KRXtW5bcROZ-121" value="" style="endArrow=classic;html=1;fontSize=9;exitX=1.081;exitY=0.094;exitDx=0;exitDy=0;exitPerimeter=0;" edge="1" parent="1">
                    <mxGeometry width="50" height="50" relative="1" as="geometry">
                        <mxPoint x="350" y="530.0799999999999" as="sourcePoint"/>
                        <mxPoint x="470" y="530" as="targetPoint"/>
                        <Array as="points">
                            <mxPoint x="410" y="530"/>
                        </Array>
                    </mxGeometry>
                </mxCell>
                <mxCell id="ga03uyhn2KRXtW5bcROZ-122" value="" style="endArrow=classic;html=1;fontSize=9;exitX=1.081;exitY=0.094;exitDx=0;exitDy=0;exitPerimeter=0;" edge="1" parent="1">
                    <mxGeometry width="50" height="50" relative="1" as="geometry">
                        <mxPoint x="480" y="565" as="sourcePoint"/>
                        <mxPoint x="360" y="565.4200000000001" as="targetPoint"/>
                    </mxGeometry>
                </mxCell>
                <mxCell id="ga03uyhn2KRXtW5bcROZ-123" value="" style="endArrow=none;dashed=1;html=1;startArrow=none;" edge="1" parent="1" target="ga03uyhn2KRXtW5bcROZ-124">
                    <mxGeometry width="50" height="50" relative="1" as="geometry">
                        <mxPoint x="475" y="660" as="sourcePoint"/>
                        <mxPoint x="475" y="340" as="targetPoint"/>
                    </mxGeometry>
                </mxCell>
                <mxCell id="ga03uyhn2KRXtW5bcROZ-124" value="" style="rounded=0;whiteSpace=wrap;html=1;direction=south;" vertex="1" parent="1">
                    <mxGeometry x="470" y="505" width="10" height="100" as="geometry"/>
                </mxCell>
                <mxCell id="ga03uyhn2KRXtW5bcROZ-125" value="CheckStock()" style="text;html=1;align=center;verticalAlign=middle;resizable=0;points=[];autosize=1;strokeColor=none;fillColor=none;fontSize=9;" vertex="1" parent="1">
                    <mxGeometry x="374" y="510" width="80" height="20" as="geometry"/>
                </mxCell>
                <mxCell id="ga03uyhn2KRXtW5bcROZ-126" value="SentData()" style="text;html=1;align=center;verticalAlign=middle;resizable=0;points=[];autosize=1;strokeColor=none;fillColor=none;fontSize=9;" vertex="1" parent="1">
                    <mxGeometry x="380" y="545" width="70" height="20" as="geometry"/>
                </mxCell>
                <mxCell id="ga03uyhn2KRXtW5bcROZ-127" value="" style="endArrow=classic;html=1;fontSize=9;exitX=1.081;exitY=0.094;exitDx=0;exitDy=0;exitPerimeter=0;" edge="1" parent="1">
                    <mxGeometry width="50" height="50" relative="1" as="geometry">
                        <mxPoint x="360" y="585" as="sourcePoint"/>
                        <mxPoint x="240" y="585.4200000000001" as="targetPoint"/>
                    </mxGeometry>
                </mxCell>
                <mxCell id="ga03uyhn2KRXtW5bcROZ-128" value="Showdata()" style="text;html=1;align=center;verticalAlign=middle;resizable=0;points=[];autosize=1;strokeColor=none;fillColor=none;fontSize=9;" vertex="1" parent="1">
                    <mxGeometry x="265" y="565" width="70" height="20" as="geometry"/>
                </mxCell>
                <mxCell id="ga03uyhn2KRXtW5bcROZ-129" value="" style="endArrow=none;dashed=1;html=1;startArrow=none;" edge="1" parent="1" target="ga03uyhn2KRXtW5bcROZ-130">
                    <mxGeometry width="50" height="50" relative="1" as="geometry">
                        <mxPoint x="355" y="420" as="sourcePoint"/>
                        <mxPoint x="354.5" y="160" as="targetPoint"/>
                    </mxGeometry>
                </mxCell>
                <mxCell id="ga03uyhn2KRXtW5bcROZ-130" value="" style="rounded=0;whiteSpace=wrap;html=1;direction=south;" vertex="1" parent="1">
                    <mxGeometry x="350" y="180" width="10" height="830" as="geometry"/>
                </mxCell>
                <mxCell id="ga03uyhn2KRXtW5bcROZ-131" value="" style="endArrow=classic;html=1;fontSize=9;exitX=1.081;exitY=0.094;exitDx=0;exitDy=0;exitPerimeter=0;" edge="1" parent="1">
                    <mxGeometry width="50" height="50" relative="1" as="geometry">
                        <mxPoint x="230" y="604" as="sourcePoint"/>
                        <mxPoint x="110" y="604.4200000000001" as="targetPoint"/>
                    </mxGeometry>
                </mxCell>
                <mxCell id="ga03uyhn2KRXtW5bcROZ-132" value="Showdata()" style="text;html=1;align=center;verticalAlign=middle;resizable=0;points=[];autosize=1;strokeColor=none;fillColor=none;fontSize=9;" vertex="1" parent="1">
                    <mxGeometry x="135" y="585" width="70" height="20" as="geometry"/>
                </mxCell>
                <mxCell id="ga03uyhn2KRXtW5bcROZ-133" value="SendChoice()" style="text;html=1;align=center;verticalAlign=middle;resizable=0;points=[];autosize=1;strokeColor=none;fillColor=none;fontSize=9;" vertex="1" parent="1">
                    <mxGeometry x="130" y="310" width="80" height="20" as="geometry"/>
                </mxCell>
                <mxCell id="ga03uyhn2KRXtW5bcROZ-134" value="ChooseChoice()" style="text;html=1;align=center;verticalAlign=middle;resizable=0;points=[];autosize=1;strokeColor=none;fillColor=none;fontSize=9;" vertex="1" parent="1">
                    <mxGeometry x="120" y="470" width="90" height="20" as="geometry"/>
                </mxCell>
                <mxCell id="ga03uyhn2KRXtW5bcROZ-135" value="SendChoice()" style="text;html=1;align=center;verticalAlign=middle;resizable=0;points=[];autosize=1;strokeColor=none;fillColor=none;fontSize=9;" vertex="1" parent="1">
                    <mxGeometry x="130" y="430" width="80" height="20" as="geometry"/>
                </mxCell>
                <mxCell id="ga03uyhn2KRXtW5bcROZ-136" value="SendChoice()" style="text;html=1;align=center;verticalAlign=middle;resizable=0;points=[];autosize=1;strokeColor=none;fillColor=none;fontSize=9;" vertex="1" parent="1">
                    <mxGeometry x="255" y="410" width="80" height="20" as="geometry"/>
                </mxCell>
                <mxCell id="ga03uyhn2KRXtW5bcROZ-137" value="ChooseChoice()" style="text;html=1;align=center;verticalAlign=middle;resizable=0;points=[];autosize=1;strokeColor=none;fillColor=none;fontSize=9;" vertex="1" parent="1">
                    <mxGeometry x="250" y="370" width="90" height="20" as="geometry"/>
                </mxCell>
                <mxCell id="ga03uyhn2KRXtW5bcROZ-138" value="ChooseChoice()" style="text;html=1;align=center;verticalAlign=middle;resizable=0;points=[];autosize=1;strokeColor=none;fillColor=none;fontSize=9;" vertex="1" parent="1">
                    <mxGeometry x="250" y="490" width="90" height="20" as="geometry"/>
                </mxCell>
            </root>
        </mxGraphModel>
    </diagram>
</mxfile>